<svg width="208" height="203" viewBox="0 0 208 203" fill="none" xmlns="http://www.w3.org/2000/svg">
<path d="M78.7299 26.6742C86.9611 24.2743 96.2891 30.0371 104.408 30.1495C112.8 30.2473 122.342 24.7901 130.137 27.2808C137.931 29.7714 142.015 39.5426 148.66 44.2345C155.305 48.9264 166.429 49.6113 171.304 56.0199C175.989 62.2357 173.132 72.2949 175.683 79.9685C178.233 87.642 186.712 94.3702 186.591 102.014C186.499 109.87 177.75 116.454 175.094 123.766C172.439 131.078 175.036 141.322 170.076 147.57C165.117 153.818 154.031 154.297 147.193 158.875C140.577 163.283 136.389 172.986 128.158 175.386C119.927 177.786 110.624 172.016 102.505 171.903C94.1129 171.806 84.5709 177.263 76.7764 174.772C68.9819 172.282 64.9363 162.499 58.2315 157.838C51.5268 153.176 40.4803 152.43 35.6093 146.033C30.9159 139.793 33.8006 129.818 31.2303 122.085C28.6601 114.351 20.2141 107.679 20.3222 100.039C20.4902 92.1606 29.1763 85.5957 31.8355 78.2955C34.4948 70.9952 31.8736 60.7193 36.8569 54.5423C41.8402 48.3654 52.9201 47.7449 59.7586 43.1673C66.3748 38.7588 70.5749 29.0518 78.7299 26.6742Z" fill="#FEBE10"/>
<path d="M182.326 78.0313C185.49 87.5489 179.216 98.0171 178.292 107.395C177.348 117.132 181.361 128.45 176.597 136.964C171.833 145.479 159.564 148.808 151.566 155.055C143.821 161.097 138.243 171.858 128.043 174.832C117.843 177.806 106.704 171.919 96.6913 171.054C86.2958 170.17 74.2107 173.928 65.1328 169.462C56.0548 164.997 52.4747 153.513 45.805 146.023C39.3613 138.792 27.8597 133.533 24.6884 123.992C21.5171 114.45 27.7991 104.006 28.7227 94.6277C29.6666 84.8913 25.6665 73.5689 30.4303 65.0547C35.1942 56.5406 47.4002 53.2298 55.4486 46.9683C63.1936 40.9257 68.7839 30.161 78.9713 27.1908C89.1586 24.2206 100.323 30.1005 110.323 30.9692C120.719 31.8533 132.817 28.0912 141.895 32.5567C150.973 37.0221 154.54 48.5099 161.21 56.0003C167.628 63.2378 179.151 68.478 182.326 78.0313Z" fill="#371400"/>
<path d="M123.47 161.158C158.932 150.819 178.732 115.512 167.692 82.298C156.653 49.0841 118.955 30.5406 83.4923 40.88C48.0295 51.2193 28.2305 86.5263 39.2699 119.74C50.3094 152.954 88.0069 171.498 123.47 161.158Z" fill="#371400"/>
<path d="M123.539 161.491C110.771 165.206 97.1129 165.291 84.2925 161.737C71.4722 158.183 60.0647 151.149 51.5125 141.523C42.9602 131.898 37.6471 120.113 36.2449 107.66C34.8426 95.2069 37.4143 82.6438 43.6346 71.5592C49.855 60.4746 59.4447 51.3663 71.1915 45.3856C82.9383 39.405 96.3146 36.8207 109.629 37.9594C122.944 39.0981 135.6 43.9086 145.996 51.7829C156.392 59.6572 164.062 70.2416 168.036 82.198C173.345 98.2394 171.642 115.598 163.299 130.465C154.957 145.331 140.657 156.489 123.539 161.491ZM83.5536 41.1885C70.9167 44.8729 59.73 51.9842 51.4083 61.6231C43.0866 71.2621 38.0036 82.9957 36.802 95.3403C35.6005 107.685 38.3344 120.086 44.658 130.975C50.9816 141.865 60.6108 150.753 72.3282 156.517C84.0455 162.281 97.3245 164.661 110.486 163.356C123.648 162.052 136.101 157.121 146.27 149.188C156.44 141.255 163.869 130.675 167.619 118.787C171.369 106.9 171.271 94.2373 167.337 82.4017C162.041 66.5443 150.247 53.301 134.541 45.5753C118.835 37.8496 100.499 36.2721 83.5536 41.1885Z" fill="white"/>
<path d="M85.3783 47.6384L88.4713 50.1948L92.5842 49.9091L90.9016 53.4403L92.4791 57.0128L88.3638 56.6206L85.2387 59.1238L84.3598 55.3476L80.8344 53.3348L84.4065 51.3799L85.3783 47.6384Z" fill="#FEBE10"/>
<path d="M65.1478 59.2525L68.236 61.8364L72.349 61.5507L70.6663 65.0819L72.2732 68.6589L68.1412 68.2585L65.0074 70.7773L64.1245 66.9892L60.6373 64.9653L64.1966 63.0141L65.1478 59.2525Z" fill="#FEBE10"/>
<path d="M109.098 46.4386L112.186 49.0225L116.299 48.7369L114.617 52.2681L116.198 55.8524L112.091 55.4446L108.958 57.9634L108.075 54.1754L104.549 52.1626L108.121 50.2077L109.098 46.4386Z" fill="#FEBE10"/>
<path d="M117.201 143.385L120.301 145.966L124.406 145.656L122.728 149.199L124.301 152.76L120.194 152.391L117.061 154.871L116.186 151.107L112.657 149.082L116.262 147.143L117.201 143.385Z" fill="#FEBE10"/>
<path d="M140.925 142.197L137.837 139.613L133.723 139.938L135.394 136.372L133.829 132.795L137.932 133.191L141.07 130.684L141.936 134.464L145.473 136.513L141.864 138.439L140.925 142.197Z" fill="#FEBE10"/>
<path d="M96.9752 155.011L93.9124 152.42L89.8113 152.741L91.444 149.186L89.8792 145.609L93.9818 146.005L97.145 143.491L97.9858 147.278L101.523 149.327L97.9518 151.242L96.9752 155.011Z" fill="#FEBE10"/>
<path d="M58.1885 107.149C57.3532 107.409 56.5626 107.506 55.8164 107.441C55.0703 107.376 54.4138 107.14 53.847 106.733C53.291 106.323 52.8857 105.748 52.631 105.006L55.5924 104.084C55.7675 104.493 56.0152 104.773 56.3356 104.923C56.6527 105.063 57.0119 105.07 57.4132 104.945C57.8254 104.817 58.1222 104.623 58.3034 104.364C58.4813 104.095 58.5178 103.792 58.4132 103.456C58.3254 103.174 58.1551 102.971 57.9025 102.847C57.6607 102.72 57.3802 102.641 57.061 102.609C56.7527 102.575 56.3199 102.561 55.7628 102.567C54.9543 102.569 54.2813 102.529 53.744 102.446C53.2066 102.364 52.7006 102.152 52.2258 101.812C51.7511 101.472 51.4023 100.944 51.1795 100.228C50.8485 99.1651 50.9753 98.2154 51.5597 97.379C52.1408 96.5318 53.0497 95.9157 54.2863 95.5308C55.5446 95.1391 56.6534 95.1271 57.6127 95.4948C58.5686 95.8516 59.2408 96.5586 59.6293 97.6156L56.6191 98.5527C56.4826 98.1906 56.2576 97.9454 55.9439 97.8169C55.6269 97.6776 55.2731 97.6688 54.8826 97.7903C54.5463 97.895 54.3038 98.0716 54.1551 98.3202C54.0031 98.5579 53.9794 98.8449 54.084 99.1812C54.1989 99.55 54.4619 99.7835 54.8732 99.8815C55.2845 99.9795 55.8961 100.033 56.708 100.042C57.5233 100.062 58.1942 100.115 58.7207 100.201C59.2581 100.283 59.7624 100.489 60.2338 100.819C60.7051 101.148 61.0471 101.654 61.2599 102.338C61.4625 102.988 61.4784 103.632 61.3076 104.268C61.1476 104.901 60.802 105.473 60.2708 105.983C59.7396 106.493 59.0455 106.882 58.1885 107.149Z" fill="white"/>
<path d="M61.776 99.6246C61.4248 98.4964 61.3565 97.4171 61.5711 96.3864C61.7824 95.345 62.2459 94.4451 62.9618 93.6868C63.6851 92.9143 64.6 92.3559 65.7064 92.0114C67.0624 91.5893 68.3345 91.586 69.5228 92.0014C70.7111 92.4168 71.6604 93.1921 72.3708 94.3275L69.3118 95.2797C68.9354 94.8733 68.4969 94.6112 67.9962 94.4934C67.5063 94.3723 66.9956 94.3944 66.4641 94.5599C65.6071 94.8267 65.0057 95.3411 64.6599 96.1032C64.3141 96.8652 64.2965 97.7453 64.6072 98.7432C64.9179 99.7412 65.4318 100.456 66.1491 100.887C66.8663 101.318 67.6534 101.4 68.5104 101.133C69.0419 100.968 69.475 100.696 69.8095 100.319C70.1549 99.9374 70.3672 99.4727 70.4464 98.9245L73.5054 97.9722C73.565 99.3102 73.2234 100.487 72.4809 101.504C71.7349 102.509 70.684 103.223 69.328 103.645C68.2216 103.99 67.1531 104.055 66.1225 103.84C65.0993 103.611 64.2069 103.134 63.4453 102.407C62.6836 101.68 62.1272 100.753 61.776 99.6246Z" fill="white"/>
<path d="M82.2501 99.5336L78.5322 95.9612L77.8651 96.1689L79.2074 100.481L76.425 101.347L72.8692 89.9245L77.5391 88.4707C78.4394 88.1905 79.2531 88.1097 79.9802 88.2284C80.7182 88.3438 81.3305 88.6291 81.8173 89.0844C82.3007 89.5288 82.6471 90.0873 82.8565 90.7599C83.0929 91.5192 83.087 92.2647 82.8388 92.9964C82.6015 93.7247 82.104 94.3436 81.3464 94.8531L85.3905 98.556L82.2501 99.5336ZM77.2522 94.2L78.977 93.6631C79.4868 93.5044 79.8276 93.2615 79.9995 92.9343C80.1821 92.6038 80.2026 92.2107 80.0607 91.7551C79.9257 91.3212 79.6891 91.0201 79.3511 90.8516C79.024 90.6798 78.6055 90.6732 78.0956 90.8319L76.3709 91.3688L77.2522 94.2Z" fill="white"/>
<path d="M92.477 96.4749C91.4031 96.8092 90.3383 96.867 89.2826 96.6483C88.2378 96.4262 87.3112 95.9532 86.5027 95.2291C85.7018 94.4909 85.1274 93.5631 84.7796 92.4458C84.4318 91.3285 84.3798 90.244 84.6236 89.1925C84.8782 88.1375 85.3726 87.2221 86.1068 86.4462C86.8518 85.6669 87.7612 85.1101 88.8351 84.7758C89.909 84.4415 90.9684 84.3854 92.0132 84.6075C93.0689 84.8262 93.9901 85.301 94.7769 86.0318C95.5744 86.7592 96.1471 87.6815 96.4949 88.7988C96.8428 89.9161 96.8965 91.006 96.6561 92.0684C96.4123 93.12 95.9233 94.0338 95.1891 94.8096C94.455 95.5855 93.5509 96.1406 92.477 96.4749ZM91.6868 93.9366C92.598 93.6529 93.2303 93.123 93.5835 92.3467C93.9477 91.567 93.9744 90.6782 93.6637 89.6802C93.3497 88.6714 92.8232 87.9547 92.0842 87.5303C91.3528 87.0917 90.5314 87.0142 89.6202 87.2979C88.6982 87.5849 88.0534 88.1129 87.6859 88.8817C87.3293 89.6471 87.3097 90.5397 87.6271 91.5594C87.9411 92.5682 88.4639 93.2919 89.1954 93.7305C89.9343 94.1549 90.7648 94.2236 91.6868 93.9366Z" fill="white"/>
<path d="M101.945 91.0468L105.589 89.9122L106.258 92.06L99.8309 94.0607L96.2751 82.6383L99.0575 81.7721L101.945 91.0468Z" fill="white"/>
<path d="M109.699 88.6329L113.344 87.4983L114.012 89.6461L107.585 91.6469L104.029 80.2244L106.812 79.3582L109.699 88.6329Z" fill="white"/>
<path d="M119.508 88.0603C118.673 88.3203 117.882 88.4177 117.136 88.3525C116.39 88.2873 115.733 88.0514 115.166 87.6448C114.61 87.2349 114.205 86.659 113.95 85.9173L116.912 84.9954C117.087 85.405 117.335 85.6848 117.655 85.8349C117.972 85.9742 118.331 85.9814 118.733 85.8565C119.145 85.7281 119.442 85.5346 119.623 85.2759C119.801 85.0064 119.837 84.7035 119.733 84.3672C119.645 84.0852 119.475 83.8823 119.222 83.7587C118.98 83.6317 118.7 83.5524 118.38 83.5209C118.072 83.486 117.639 83.472 117.082 83.4788C116.274 83.4807 115.601 83.4403 115.063 83.3577C114.526 83.2751 114.02 83.0637 113.545 82.7237C113.07 82.3836 112.722 81.8556 112.499 81.1397C112.168 80.0766 112.295 79.1269 112.879 78.2905C113.46 77.4433 114.369 76.8272 115.606 76.4423C116.864 76.0506 117.973 76.0386 118.932 76.4063C119.888 76.7631 120.56 77.4701 120.949 78.5271L117.939 79.4642C117.802 79.1021 117.577 78.8568 117.263 78.7284C116.946 78.5891 116.592 78.5803 116.202 78.7018C115.866 78.8065 115.623 78.9831 115.474 79.2317C115.322 79.4694 115.299 79.7564 115.403 80.0927C115.518 80.4615 115.781 80.6949 116.193 80.793C116.604 80.891 117.215 80.9446 118.027 80.9536C118.843 80.9735 119.514 81.0264 120.04 81.1124C120.577 81.1949 121.082 81.4009 121.553 81.7301C122.024 82.0593 122.367 82.5656 122.579 83.249C122.782 83.8999 122.798 84.5434 122.627 85.1796C122.467 85.8124 122.121 86.3841 121.59 86.8945C121.059 87.4049 120.365 87.7935 119.508 88.0603Z" fill="white"/>
<path d="M122.429 74.4967L125.276 73.6103L124.812 78.5383L122.94 79.1208L122.429 74.4967Z" fill="white"/>
<path d="M129.399 82.4112C129.676 82.0035 129.802 81.8156 129.776 81.8474C130.566 80.6378 131.177 79.6565 131.608 78.9033C132.051 78.1467 132.388 77.3935 132.618 76.6435C132.849 75.8935 132.873 75.2256 132.691 74.6398C132.552 74.1951 132.341 73.88 132.057 73.6947C131.774 73.5093 131.426 73.4808 131.013 73.6092C130.601 73.7375 130.325 73.9961 130.184 74.3849C130.051 74.7596 130.072 75.2289 130.248 75.793L127.563 76.6288C127.297 75.7 127.253 74.869 127.429 74.1359C127.617 73.3994 127.968 72.7902 128.485 72.3082C129.012 71.8228 129.649 71.4636 130.398 71.2306C131.689 70.8288 132.763 70.8574 133.62 71.3165C134.487 71.7722 135.087 72.5316 135.417 73.5947C135.779 74.7554 135.719 75.9579 135.238 77.2024C134.753 78.4361 134.045 79.7155 133.113 81.0408L137.506 79.6732L138.21 81.935L130.042 84.4777L129.399 82.4112Z" fill="white"/>
<path d="M136.929 73.1598C136.611 71.9856 136.712 70.9724 137.232 70.1204C137.753 69.2684 138.625 68.6516 139.851 68.27C140.665 68.0167 141.403 67.9417 142.066 68.0447C142.739 68.1444 143.298 68.3927 143.743 68.7897C144.199 69.1833 144.521 69.6838 144.71 70.2913C144.933 71.0072 144.937 71.6487 144.721 72.2157C144.501 72.7719 144.178 73.2057 143.751 73.5169L143.772 73.582C144.454 73.5957 145.049 73.7854 145.555 74.1513C146.062 74.5171 146.431 75.0743 146.664 75.8228C146.874 76.4953 146.902 77.1409 146.75 77.7595C146.605 78.3639 146.279 78.9054 145.774 79.384C145.279 79.8592 144.625 80.2235 143.812 80.4767C142.51 80.8819 141.369 80.8861 140.389 80.4892C139.419 80.089 138.712 79.2502 138.267 77.9728L140.968 77.132C141.127 77.6059 141.381 77.9434 141.729 78.1444C142.074 78.3345 142.496 78.3519 142.995 78.1966C143.418 78.0649 143.706 77.8443 143.86 77.5347C144.021 77.2109 144.039 76.8484 143.914 76.447C143.752 75.9263 143.467 75.6044 143.06 75.4813C142.66 75.344 142.097 75.3884 141.37 75.6147L140.849 75.7767L140.145 73.515L140.666 73.3529C141.219 73.1807 141.635 72.9501 141.914 72.661C142.201 72.3577 142.268 71.9619 142.116 71.4738C141.994 71.0833 141.791 70.8133 141.507 70.6639C141.222 70.5145 140.89 70.4989 140.51 70.6171C140.098 70.7454 139.828 70.9664 139.7 71.28C139.582 71.5903 139.564 71.9349 139.647 72.3139L136.929 73.1598Z" fill="white"/>
<path d="M86.1472 121.616L86.7254 133.965L83.3572 135.014L79.1947 128.064L79.6473 136.168L76.2792 137.217L69.8271 126.696L72.8047 125.769L77.0365 133.572L76.4821 124.624L79.5411 123.672L84.082 131.379L83.1533 122.548L86.1472 121.616Z" fill="#FEBE10"/>
<path d="M90.325 120.315L93.8808 131.738L91.0984 132.604L87.5426 121.181L90.325 120.315Z" fill="#FEBE10"/>
<path d="M106.116 127.929L103.333 128.795L96.4863 123.198L98.6796 130.244L95.8972 131.11L92.3414 119.687L95.1238 118.821L101.981 124.451L99.7774 117.373L102.56 116.506L106.116 127.929Z" fill="#FEBE10"/>
<path d="M118.351 124.12L115.568 124.986L108.722 119.389L110.915 126.435L108.132 127.301L104.577 115.879L107.359 115.012L114.216 120.642L112.013 113.564L114.795 112.698L118.351 124.12Z" fill="#FEBE10"/>
<path d="M120.288 113.433L121.008 115.743L124.734 114.583L125.402 116.731L121.676 117.891L122.456 120.397L126.67 119.085L127.364 121.314L120.368 123.492L116.812 112.07L123.809 109.892L124.503 112.121L120.288 113.433Z" fill="#FEBE10"/>
<path d="M134.996 118.939L131.278 115.366L130.611 115.574L131.953 119.886L129.171 120.752L125.615 109.329L130.285 107.876C131.185 107.595 131.999 107.515 132.726 107.633C133.464 107.749 134.076 108.034 134.563 108.489C135.047 108.934 135.393 109.492 135.602 110.165C135.839 110.924 135.833 111.67 135.585 112.401C135.347 113.13 134.85 113.749 134.092 114.258L138.136 117.961L134.996 118.939ZM129.998 113.605L131.723 113.068C132.233 112.909 132.573 112.667 132.745 112.339C132.928 112.009 132.948 111.616 132.806 111.16C132.671 110.726 132.435 110.425 132.097 110.257C131.77 110.085 131.351 110.078 130.841 110.237L129.117 110.774L129.998 113.605Z" fill="#FEBE10"/>
<path d="M143.954 116.275C143.118 116.535 142.328 116.632 141.582 116.567C140.835 116.502 140.179 116.266 139.612 115.86C139.056 115.45 138.651 114.874 138.396 114.132L141.357 113.21C141.533 113.62 141.78 113.9 142.101 114.05C142.418 114.189 142.777 114.196 143.178 114.071C143.591 113.943 143.887 113.749 144.068 113.491C144.246 113.221 144.283 112.918 144.178 112.582C144.09 112.3 143.92 112.097 143.668 111.973C143.426 111.846 143.145 111.767 142.826 111.736C142.518 111.701 142.085 111.687 141.528 111.694C140.719 111.695 140.046 111.655 139.509 111.572C138.972 111.49 138.466 111.278 137.991 110.938C137.516 110.598 137.167 110.07 136.945 109.354C136.614 108.291 136.74 107.342 137.325 106.505C137.906 105.658 138.815 105.042 140.051 104.657C141.31 104.265 142.418 104.253 143.378 104.621C144.334 104.978 145.006 105.685 145.394 106.742L142.384 107.679C142.248 107.317 142.023 107.072 141.709 106.943C141.392 106.804 141.038 106.795 140.648 106.917C140.311 107.021 140.069 107.198 139.92 107.446C139.768 107.684 139.744 107.971 139.849 108.307C139.964 108.676 140.227 108.91 140.638 109.008C141.05 109.106 141.661 109.159 142.473 109.168C143.288 109.188 143.959 109.241 144.486 109.327C145.023 109.41 145.528 109.616 145.999 109.945C146.47 110.274 146.812 110.78 147.025 111.464C147.228 112.115 147.243 112.758 147.073 113.394C146.913 114.027 146.567 114.599 146.036 115.109C145.505 115.62 144.811 116.008 143.954 116.275Z" fill="#FEBE10"/>
</svg>

